<svg xmlns="http://www.w3.org/2000/svg" viewBox="0 0 64 64">
  <rect width="64" height="64" rx="16" fill="#111827"/>
  <path d="M31 16v20a8 8 0 1 1-6-7.8V22c6 0 11-3 14-8 2 5 5 8 10 9v7c-4-.3-8-2-11-5v11a13 13 0 1 1-10-12.7V16z" fill="#22D3EE"/>
  <path d="M34 14v20a8 8 0 1 1-6-7.8V20c6 0 11-3 14-8 2 5 5 8 10 9v7c-4-.3-8-2-11-5v11a13 13 0 1 1-10-12.7V14z" fill="#F43F5E" opacity=".9"/>
  <path d="M46 45c0 4-4 6-12 10-8-4-12-6-12-10 0-4 4-6 7-3 2-3 7-1 7 2 0-3 5-5 7-2 2-2 3-.4 3 3z" fill="#F9FAFB"/>
</svg>
